name C:/MyDriveSym/Projects/mobilecap/Data\Session20210820_0002\mocap\ForceDataProcessed\walking2_forces.mot
datacolumns 19
datarows 19
range 1.01950000 1.02850000
endheader 
time	R_ground_force_vx	R_ground_force_vy	R_ground_force_vz	R_ground_force_px	R_ground_force_py	R_ground_force_pz	R_ground_torque_x	R_ground_torque_y	R_ground_torque_z	L_ground_force_vx	L_ground_force_vy	L_ground_force_vz	L_ground_force_px	L_ground_force_py	L_ground_force_pz	L_ground_torque_x	L_ground_torque_y	L_ground_torque_z	
          1.01950000	          0.00000000	          0.00000000	          0.00000000	          1.35018400	          0.00000000	         -0.13230200	          0.00000000	          0.00000000	          0.00000000	         39.40789200	        860.49913000	         39.95731900	          0.98608700	          0.00600000	         -0.26173800	          0.00000000	          6.37606800	          0.00000000	
          1.02000000	          0.00000000	          0.00000000	          0.00000000	          1.35155500	          0.00000000	         -0.13222200	          0.00000000	          0.00000000	          0.00000000	         39.68610400	        861.34714900	         40.01023300	          0.98639900	          0.00600000	         -0.26172000	          0.00000000	          6.37321000	          0.00000000	
          1.02050000	          0.00000000	          0.00000000	          0.00000000	          1.35292700	          0.00000000	         -0.13214300	          0.00000000	          0.00000000	          0.00000000	         39.96553100	        862.19046800	         40.06245700	          0.98671100	          0.00600000	         -0.26170200	          0.00000000	          6.37028200	          0.00000000	
          1.02100000	          0.00000000	          0.00000000	          0.00000000	          1.35429800	          0.00000000	         -0.13206400	          0.00000000	          0.00000000	          0.00000000	         40.24616900	        863.02898400	         40.11398600	          0.98702200	          0.00600000	         -0.26168400	          0.00000000	          6.36728400	          0.00000000	
          1.02150000	          0.00000000	          0.00000000	          0.00000000	          1.35567000	          0.00000000	         -0.13198500	          0.00000000	          0.00000000	          0.00000000	         40.52801300	        863.86259600	         40.16481000	          0.98733200	          0.00600000	         -0.26166600	          0.00000000	          6.36421700	          0.00000000	
          1.02200000	          0.00000000	          0.00000000	          0.00000000	          1.35704100	          0.00000000	         -0.13190600	          0.00000000	          0.00000000	          0.00000000	         40.81105700	        864.69120000	         40.21492200	          0.98764100	          0.00600000	         -0.26164700	          0.00000000	          6.36108200	          0.00000000	
          1.02250000	          0.00000000	          0.00000000	          0.00000000	          1.35841300	          0.00000000	         -0.13182700	          0.00000000	          0.00000000	          0.00000000	         41.09529600	        865.51469300	         40.26431400	          0.98795000	          0.00600000	         -0.26162900	          0.00000000	          6.35787800	          0.00000000	
          1.02300000	          0.00000000	          0.00000000	          0.00000000	          1.35978400	          0.00000000	         -0.13174800	          0.00000000	          0.00000000	          0.00000000	         41.38072400	        866.33297000	         40.31297900	          0.98825800	          0.00600000	         -0.26161000	          0.00000000	          6.35460700	          0.00000000	
          1.02350000	          0.00000000	          0.00000000	          0.00000000	          1.36115600	          0.00000000	         -0.13166900	          0.00000000	          0.00000000	          0.00000000	         41.66733500	        867.14592900	         40.36090800	          0.98856600	          0.00600000	         -0.26159100	          0.00000000	          6.35126800	          0.00000000	
          1.02400000	          0.00000000	          0.00000000	          0.00000000	          1.36252700	          0.00000000	         -0.13159000	          0.00000000	          0.00000000	          0.00000000	         41.95512400	        867.95346300	         40.40809500	          0.98887300	          0.00600000	         -0.26157300	          0.00000000	          6.34786100	          0.00000000	
          1.02450000	          0.00000000	          0.00000000	          0.00000000	          1.36389900	          0.00000000	         -0.13151100	          0.00000000	          0.00000000	          0.00000000	         42.24408400	        868.75546700	         40.45453100	          0.98917900	          0.00600000	         -0.26155400	          0.00000000	          6.34438800	          0.00000000	
          1.02500000	          0.00000000	          0.00000000	          0.00000000	          1.36527000	          0.00000000	         -0.13143200	          0.00000000	          0.00000000	          0.00000000	         42.53420800	        869.55183500	         40.50021000	          0.98948500	          0.00600000	         -0.26153500	          0.00000000	          6.34084800	          0.00000000	
          1.02550000	          0.00000000	          0.00000000	          0.00000000	          1.36664200	          0.00000000	         -0.13135300	          0.00000000	          0.00000000	          0.00000000	         42.82549000	        870.34246100	         40.54512200	          0.98978900	          0.00600000	         -0.26151600	          0.00000000	          6.33724300	          0.00000000	
          1.02600000	          0.00000000	          0.00000000	          0.00000000	          1.36801300	          0.00000000	         -0.13127300	          0.00000000	          0.00000000	          0.00000000	         43.11792300	        871.12723800	         40.58926200	          0.99009400	          0.00600000	         -0.26149600	          0.00000000	          6.33357200	          0.00000000	
          1.02650000	          0.00000000	          0.00000000	          0.00000000	          1.36938500	          0.00000000	         -0.13119400	          0.00000000	          0.00000000	          0.00000000	         43.41150000	        871.90605800	         40.63262000	          0.99039700	          0.00600000	         -0.26147700	          0.00000000	          6.32983500	          0.00000000	
          1.02700000	          0.00000000	          0.00000000	          0.00000000	          1.37075600	          0.00000000	         -0.13111500	          0.00000000	          0.00000000	          0.00000000	         43.70621500	        872.67881500	         40.67519000	          0.99070000	          0.00600000	         -0.26145800	          0.00000000	          6.32603400	          0.00000000	
          1.02750000	          0.00000000	          0.00000000	          0.00000000	          1.37212700	          0.00000000	         -0.13103600	          0.00000000	          0.00000000	          0.00000000	         44.00205900	        873.44539800	         40.71696500	          0.99100200	          0.00600000	         -0.26143800	          0.00000000	          6.32216900	          0.00000000	
          1.02800000	          0.00000000	          0.00000000	          0.00000000	          1.37349900	          0.00000000	         -0.13095700	          0.00000000	          0.00000000	          0.00000000	         44.29902600	        874.20570100	         40.75793600	          0.99130400	          0.00600000	         -0.26141800	          0.00000000	          6.31824000	          0.00000000	
          1.02850000	          0.00000000	          0.00000000	          0.00000000	          1.37487000	          0.00000000	         -0.13087800	          0.00000000	          0.00000000	          0.00000000	         44.59710700	        874.95961300	         40.79809600	          0.99160500	          0.00600000	         -0.26139900	          0.00000000	          6.31424700	          0.00000000	
